<?xml version="1.0" standalone="no"?>
<!DOCTYPE svg PUBLIC "-//W3C//DTD SVG 20010904//EN"
 "http://www.w3.org/TR/2001/REC-SVG-20010904/DTD/svg10.dtd">
<svg version="1.0" xmlns="http://www.w3.org/2000/svg"
 width="640.000000pt" height="640.000000pt" viewBox="0 0 640.000000 640.000000"
 preserveAspectRatio="xMidYMid meet">
<metadata>
Created by potrace 1.14, written by Peter Selinger 2001-2017
</metadata>
<g transform="translate(0.000000,640.000000) scale(0.100000,-0.100000)"
fill="#000000" stroke="none">
<path d="M1840 5920 c140 -280 235 -480 228 -481 -7 -1 -17 0 -23 1 -5 1 -53
1 -105 0 -52 0 -102 -1 -110 -1 -47 2 -115 -1 -121 -5 -4 -2 -10 0 -14 6 -4 6
-10 8 -14 6 -4 -3 -24 -6 -43 -8 l-36 -2 79 -158 c43 -87 79 -159 79 -162 0
-2 -17 0 -37 3 -21 4 -52 4 -69 1 -16 -4 -39 -4 -49 0 -11 4 -33 4 -50 0 -16
-3 -41 -4 -55 0 -14 3 -42 3 -62 0 -20 -4 -42 -4 -48 0 -6 4 -29 4 -51 0 -22
-4 -41 -4 -44 0 -2 4 -25 4 -50 0 -25 -4 -45 -4 -45 -1 0 7 -99 6 -105 -1 -3
-2 -26 -2 -52 2 -27 3 -56 4 -65 2 -14 -3 42 -122 297 -633 173 -346 315 -633
315 -637 0 -8 -50 -15 -90 -13 -40 2 -105 -1 -111 -5 -4 -2 -10 0 -14 6 -4 6
-10 8 -14 6 -4 -3 -24 -6 -43 -8 l-36 -2 159 -318 159 -318 -481 -961 -480
-961 40 4 c23 2 41 1 41 -2 0 -3 26 -4 57 -2 32 1 76 2 98 1 22 0 49 0 60 1
11 1 27 1 35 1 8 0 36 -1 63 -1 26 -1 51 1 56 5 5 3 12 1 15 -3 3 -5 26 -6 51
-2 25 4 45 4 45 1 0 -3 26 -5 57 -3 32 1 76 2 98 1 22 0 49 0 60 1 11 1 27 1
35 1 8 0 36 -1 63 -1 26 -1 51 1 56 5 5 3 12 1 15 -3 3 -5 26 -6 51 -2 25 4
45 4 45 1 0 -3 26 -5 57 -3 32 1 76 2 98 1 22 0 49 0 60 1 11 1 27 1 35 1 8 0
36 -1 63 -1 26 -1 51 1 56 5 5 3 12 1 15 -3 3 -5 26 -6 51 -2 25 4 45 4 45 0
0 -4 20 -4 45 0 25 4 45 4 45 0 0 -4 20 -4 45 0 24 4 49 4 55 0 6 -4 31 -4 55
0 25 4 47 4 50 1 4 -3 21 -4 40 -2 19 1 43 0 52 -3 12 -4 129 -228 333 -636
173 -346 317 -630 320 -630 3 0 149 288 325 639 175 352 322 638 326 636 8 -5
83 -7 167 -3 34 2 62 1 62 -2 0 -3 26 -4 57 -2 32 1 76 2 98 1 22 0 49 0 60 1
11 1 27 1 35 1 8 0 36 -1 63 -1 26 -1 51 1 56 5 5 3 12 1 15 -3 3 -5 26 -6 51
-2 25 4 45 4 45 1 0 -3 26 -5 57 -3 32 1 76 2 98 1 22 0 49 0 60 1 11 1 27 1
35 1 8 0 36 -1 63 -1 26 -1 51 1 56 5 5 3 12 1 15 -3 3 -5 26 -6 51 -2 25 4
45 4 45 1 0 -3 26 -5 57 -3 32 1 73 2 91 2 17 0 40 -1 50 -1 9 1 40 0 67 0 28
-1 61 0 75 1 14 1 32 1 40 1 8 0 31 -1 50 0 19 0 42 0 50 0 8 0 35 0 60 0 54
0 50 1 123 -3 31 -2 57 -2 57 0 0 1 -216 434 -480 962 l-480 960 313 627 c171
346 316 631 321 634 18 14 -39 22 -124 18 -8 0 -31 0 -50 0 -19 1 -44 1 -55 1
-11 0 -46 0 -79 0 -32 0 -62 -2 -66 -5 -5 -3 -11 -1 -14 3 -3 5 -26 6 -51 2
-25 -4 -45 -4 -45 -1 0 3 -27 6 -60 6 -33 0 -60 -3 -60 -6 0 -3 -23 -3 -50 1
-28 4 -50 2 -50 -2 0 -5 -4 -6 -10 -3 -5 3 -33 5 -62 5 -29 0 -62 -1 -73 -1
-11 0 -56 0 -100 0 -44 0 -87 0 -95 0 -75 2 -113 1 -119 -3 -4 -3 -13 -1 -20
3 -7 5 -29 5 -50 1 l-38 -7 -481 964 -482 963 -800 0 -800 0 240 -480z m1486
-1373 c121 -241 194 -388 194 -391 0 -3 -197 4 -212 8 -10 2 -18 1 -18 -3 0
-4 -20 -5 -45 -1 -25 4 -45 4 -45 0 0 -4 -20 -4 -45 0 -25 4 -45 4 -45 0 0 -4
-20 -4 -45 0 -25 4 -45 4 -45 1 0 -3 -31 -5 -69 -3 l-69 4 156 314 c86 173
159 314 162 314 3 0 60 -109 126 -243z"/>
</g>
</svg>
