<?xml version="1.0" standalone="no"?>
<!DOCTYPE svg PUBLIC "-//W3C//DTD SVG 20010904//EN"
 "http://www.w3.org/TR/2001/REC-SVG-20010904/DTD/svg10.dtd">
<svg version="1.0" xmlns="http://www.w3.org/2000/svg"
 width="1024.000000pt" height="1024.000000pt" viewBox="0 0 1024.000000 1024.000000"
 preserveAspectRatio="xMidYMid meet">
<metadata>
Created by potrace 1.14, written by Peter Selinger 2001-2017
</metadata>
<g transform="translate(0.000000,1024.000000) scale(0.100000,-0.100000)"
fill="#000000" stroke="none">
<path d="M3245 10233 c-80 -17 -153 -59 -214 -121 -37 -39 -172 -295 -202
-384 -21 -64 -25 -166 -8 -219 60 -187 201 -289 404 -290 152 -1 238 -71 239
-195 1 -47 -14 -82 -171 -397 -95 -190 -184 -357 -199 -372 -24 -24 -56 -42
-94 -52 -8 -2 -186 -5 -395 -7 -324 -2 -388 -5 -432 -20 -52 -17 -135 -72
-163 -109 -8 -11 -22 -27 -30 -36 -15 -18 -150 -283 -169 -334 -54 -140 -8
-315 109 -421 77 -69 151 -95 295 -100 73 -3 102 -9 128 -25 45 -27 73 -60 90
-101 25 -63 13 -114 -58 -260 -78 -161 -92 -229 -66 -332 36 -142 134 -245
271 -285 30 -9 97 -17 147 -19 72 -1 100 -6 125 -22 73 -45 107 -107 102 -183
-2 -38 -166 -373 -955 -1950 -523 -1047 -956 -1917 -961 -1934 -61 -202 56
-422 257 -484 58 -18 135 -19 1900 -19 2019 0 1875 4 1940 -59 20 -19 144
-258 357 -685 283 -567 334 -662 374 -702 46 -47 101 -80 159 -98 52 -16 156
-20 209 -7 68 16 157 70 201 122 22 26 160 289 361 692 179 357 335 661 347
674 12 13 42 33 65 43 43 19 72 20 855 20 539 0 827 3 857 10 201 48 333 255
291 458 -8 38 -224 479 -697 1425 -628 1255 -686 1374 -686 1420 -1 46 17 85
190 431 104 210 196 392 203 405 7 13 14 26 14 29 1 3 74 151 164 329 151 302
192 404 185 456 -1 11 -4 43 -7 70 -6 64 -48 146 -104 206 -48 51 -144 103
-210 114 -23 3 -342 6 -710 6 -403 0 -683 4 -706 10 -85 22 -55 -33 -874 1605
-817 1632 -792 1588 -897 1649 -92 54 -90 54 -984 53 -455 0 -836 -3 -847 -5z
m1961 -3062 c23 -10 53 -34 67 -52 13 -19 73 -131 132 -250 120 -241 126 -268
84 -351 -24 -47 -36 -59 -91 -88 -34 -18 -55 -20 -285 -17 -237 2 -250 3 -284
24 -56 35 -89 91 -94 157 -4 55 -1 62 111 287 63 126 124 239 136 251 57 57
149 73 224 39z"/>
</g>
</svg>
